<svg width="172" height="39" viewBox="0 0 172 39" fill="none" xmlns="http://www.w3.org/2000/svg">
<g clip-path="url(#clip0)">
<path d="M58.4252 0.0270064V0.00012207H52.8078V0.0270064C53.3647 0.259614 53.9921 0.915357 53.9921 2.04917V3.74288H47.8179V2.04917C47.8179 0.929384 48.4672 0.259614 49.0021 0.0270064V0.00012207H43.3848V0.0270064C43.9879 0.259614 44.6383 0.915357 44.6383 2.04917V7.4459C44.6383 8.56569 43.9648 9.23546 43.3848 9.46807V9.49496H49.0021V9.46807C48.4452 9.23546 47.8179 8.57972 47.8179 7.4459V5.10931H53.9921V7.49967C53.9921 8.56569 53.3428 9.23429 52.8078 9.4669V9.49379H58.4252V9.4669C57.8221 9.23429 57.1716 8.57855 57.1716 7.49967V2.04917C57.1716 0.929384 57.844 0.259614 58.4252 0.0270064ZM78.2626 7.25421L74.8509 1.62604C74.3633 0.819509 74.8277 0.259614 75.2691 0.0281753V0.00129095H69.1261V0.0281753C69.5674 0.246756 70.0076 0.820678 69.5443 1.62604L66.225 7.25421C65.5988 8.3062 64.6005 9.13962 63.9732 9.4669V9.49379H68.8476V9.4669C68.523 9.28923 68.2907 8.72934 68.8938 7.78605L69.103 7.45759H75.0831L75.2922 7.78605C75.8722 8.72817 75.6862 9.28923 75.2922 9.4669V9.49379H80.5375V9.4669C79.8882 9.15247 78.89 8.3062 78.2626 7.25421ZM72.0225 1.81657H72.115C72.3507 2.86856 72.9307 3.7838 73.461 4.67215L74.3194 6.12039H69.8632L70.7216 4.67215C71.2554 3.7838 71.8123 2.86856 72.0214 1.81657H72.0225ZM108.583 0.0270064V0.00012207H103.036V0.0270064C103.546 0.259614 104.22 0.928215 104.22 2.04917V8.14256H98.9053V2.04917C98.9053 0.915357 99.5547 0.259614 100.09 0.0270064V0.00012207H94.6352V0.0270064C95.1458 0.259614 95.8194 0.928215 95.8194 2.04917V8.14256H90.5048V2.04917C90.5048 0.929384 91.1783 0.259614 91.689 0.0270064V0.00012207H86.1421V0.0270064C86.7452 0.259614 87.3957 0.915357 87.3957 2.04917V7.4459C87.3957 8.56569 86.7221 9.23546 86.1421 9.46807V9.49496H108.586V9.46807C108.006 9.23546 107.333 8.56686 107.333 7.4459V2.04917C107.333 0.915357 107.982 0.259614 108.586 0.0270064H108.583ZM128.42 7.25421L125.008 1.62604C124.521 0.819509 124.985 0.259614 125.427 0.0281753V0.00129095H119.283V0.0281753C119.725 0.246756 120.165 0.820678 119.702 1.62604L116.382 7.25421C115.756 8.3062 114.758 9.13962 114.131 9.4669V9.49379H119.005V9.4669C118.68 9.28923 118.448 8.72934 119.051 7.78605L119.26 7.45759H125.241L125.45 7.78605C126.03 8.72817 125.844 9.28923 125.45 9.4669V9.49379H130.695V9.4669C130.046 9.15247 129.047 8.3062 128.42 7.25421ZM122.18 1.81657H122.272C122.508 2.86856 123.088 3.7838 123.618 4.67215L124.477 6.12039H120.021L120.879 4.67215C121.413 3.7838 121.97 2.86856 122.179 1.81657H122.18Z" fill="#7D5A3A"/>
<path d="M158.727 36.855C155.193 36.2496 151.659 35.6943 148.138 35.1824C148.138 32.8762 148.138 30.57 148.138 28.2637C148.138 25.9575 148.138 23.6478 148.138 21.3416C146.757 21.2282 145.817 21.4457 145.302 21.9787C144.785 22.5128 144.516 23.566 144.516 25.158C144.516 26.7536 144.516 28.3409 144.516 29.9329C144.516 31.5249 144.516 33.1158 144.516 34.7031C141.258 34.3221 138 33.9761 134.756 33.664C134.756 31.0375 134.756 28.4064 134.756 25.7787C134.756 23.7612 134.864 22.3211 135.091 21.4421C135.316 20.5667 135.848 19.8945 136.662 19.4363C137.492 18.97 138.887 18.5433 140.852 18.1365C138.291 17.7754 136.653 16.9805 135.892 15.7614C135.141 14.5598 134.757 12.4441 134.757 9.41084C134.757 6.0655 135.764 3.67045 137.768 2.21169C139.779 0.747078 144.138 -0.00100708 150.844 -0.00100708C153.462 -0.00100708 156.095 -0.00100708 158.728 -0.00100708C158.728 6.14147 158.728 12.2851 158.728 18.4288C158.728 24.5712 158.728 30.7114 158.728 36.8539L158.727 36.855ZM148.138 15.2588C148.138 12.4569 148.138 9.65163 148.138 6.84631C147.774 6.83462 147.412 6.82644 147.063 6.81826C146.292 6.79838 145.662 7.00177 145.2 7.43893C144.746 7.87025 144.516 8.91289 144.516 10.5493C144.516 10.7001 144.516 10.8462 144.516 10.9923C144.516 12.6685 144.784 13.7719 145.302 14.3178C145.817 14.8602 146.757 15.1781 148.138 15.2599V15.2588Z" fill="#7D5A3A"/>
<path d="M13.2734 37.4675C13.3023 31.2233 13.3312 24.978 13.3462 18.7338C13.3612 12.4896 13.3462 6.24429 13.3462 0.00012207C21.6371 0.00012207 29.9429 0.00012207 38.2626 0.00012207C38.2626 5.6844 38.2776 11.3687 38.2626 17.0529C38.2476 22.7372 38.2187 28.4215 38.2048 34.1058C34.6706 34.4751 31.1502 34.8772 27.6299 35.3156C27.6299 30.6669 27.6588 26.0183 27.6738 21.365C27.6888 16.7163 27.6888 12.0677 27.6888 7.41434C26.4237 7.45058 25.1574 7.48798 23.9073 7.52422C23.9073 12.2418 23.9073 16.9606 23.8923 21.6782C23.8773 26.3958 23.8484 31.1146 23.8484 35.8275C20.3142 36.3477 16.7938 36.8959 13.2734 37.4675Z" fill="#7D5A3A"/>
<path d="M130.276 33.2852C128.197 33.1344 126.116 32.993 124.036 32.8633C124.036 30.4846 124.036 28.1094 124.036 25.7249C123.28 25.684 122.524 25.6512 121.782 25.6197C121.782 27.9913 121.782 30.3618 121.782 32.7288C119.703 32.6236 117.622 32.5173 115.542 32.4366C115.542 29.2537 115.535 26.0697 115.542 22.8833C115.549 19.7005 115.557 16.5129 115.557 13.3254C117.637 13.3581 119.718 13.399 121.797 13.4434C121.797 15.7578 121.797 18.0675 121.797 20.3819C122.524 20.4065 123.281 20.4345 124.037 20.4626C124.037 18.14 124.052 15.8221 124.052 13.4995C126.132 13.5521 128.213 13.6094 130.278 13.6702C130.278 16.9431 130.278 20.2148 130.278 23.4795C130.278 26.7477 130.278 30.017 130.278 33.2852H130.276Z" fill="#7D5A3A"/>
<path d="M85.3759 20.4146C83.4118 20.4181 81.4489 20.4228 79.4848 20.4392C79.4998 20.0172 79.4998 19.5953 79.4998 19.1721C79.4998 17.7145 79.6881 16.5854 80.0521 15.7905C80.4148 14.998 81.1589 14.2979 82.2634 13.6912C83.3691 13.0834 84.8087 12.7737 86.5833 12.7737C88.7068 12.7737 90.3058 13.1196 91.3838 13.8093C92.4594 14.4966 93.1226 15.3382 93.3329 16.3352C93.5443 17.3323 93.639 19.3965 93.639 22.5104C93.639 24.0861 93.624 25.6606 93.624 27.2362C93.624 28.8154 93.624 30.3911 93.624 31.9667C91.5883 31.955 89.5514 31.9468 87.5145 31.9422C87.5145 31.3858 87.5145 30.8259 87.5145 30.266C87.1367 30.9439 86.6387 31.4407 86.031 31.7844C85.4314 32.1233 84.707 32.2987 83.8636 32.2998C82.7729 32.3022 81.7539 32.0298 80.8377 31.4758C79.9203 30.9206 79.4594 29.6897 79.4709 27.7856C79.4744 27.2701 79.4859 26.7547 79.4859 26.2345C79.4859 24.826 79.7286 23.8593 80.2127 23.3439C80.7025 22.8237 81.918 22.2358 83.8485 21.5414C85.9028 20.8027 87.0038 20.3024 87.1506 20.0429C87.295 19.7869 87.3689 19.2715 87.3689 18.4836C87.3689 17.5006 87.3031 16.8554 87.1506 16.5585C86.998 16.2628 86.7138 16.1155 86.336 16.1155C85.9143 16.1155 85.659 16.2441 85.5504 16.493C85.4406 16.7443 85.391 17.3942 85.391 18.4462C85.391 19.1043 85.391 19.7612 85.3759 20.4158V20.4146ZM87.3689 22.9932C86.3649 23.6676 85.7687 24.231 85.6093 24.6869C85.4487 25.1416 85.3829 25.7915 85.3759 26.6401C85.3678 27.6231 85.4187 28.2438 85.5654 28.5325C85.7098 28.8177 85.9871 28.9545 86.4088 28.9545C86.8016 28.9545 87.0627 28.8446 87.1794 28.6214C87.2961 28.3981 87.3539 27.8137 87.3539 26.868C87.3539 25.5764 87.3689 24.286 87.3689 22.9944V22.9932Z" fill="#7D5A3A"/>
<path d="M68.11 13.2319C68.11 15.6924 68.095 18.1482 68.0811 20.6052C69.4052 20.5806 70.0741 19.9307 70.0741 18.6485C70.0741 17.5801 70.0891 16.5129 70.0891 15.4364C70.0891 14.1448 70.3225 13.3979 70.787 13.2027C72.7799 13.1828 74.8018 13.1664 76.8237 13.1536C76.3581 13.7707 76.1259 14.6848 76.1259 15.8864C76.1259 16.7631 76.1259 17.6409 76.1259 18.5176C76.1259 19.4316 75.6984 20.1914 74.8746 20.8156C74.5788 21.04 73.9422 21.3743 72.9833 21.8056C72.3571 22.0873 71.6593 22.2486 70.8748 22.2802C71.2526 22.3328 71.9261 22.4567 72.9105 22.7185C75.0675 23.2925 76.1397 24.3959 76.1397 25.9587C76.1397 27.0633 76.1247 28.1632 76.1247 29.2678C76.1247 30.4822 76.3569 31.3951 76.8225 32.0006C74.8007 32.0369 72.7788 32.0696 70.7719 32.1222C70.3063 31.5494 70.0741 30.8142 70.0741 29.913C70.0741 28.5816 70.0891 27.2491 70.0891 25.9131C70.0891 24.6343 69.4202 24.0008 68.0823 24.0288C68.0823 26.7535 68.0673 29.4735 68.0673 32.19C66.0015 32.2636 63.9369 32.3361 61.8711 32.4249C61.8711 29.2421 61.878 26.058 61.8861 22.8798C61.893 19.697 61.915 16.5094 61.915 13.3266C63.9808 13.2903 66.0454 13.2623 68.1112 13.2295L68.11 13.2319Z" fill="#7D5A3A"/>
<path d="M58.233 23.3264C55.5133 23.4316 52.7936 23.5497 50.0877 23.6759C50.0877 25.0844 50.0819 26.4941 50.0727 27.9026C50.0669 28.7839 50.1305 29.352 50.2622 29.6033C50.3927 29.8511 50.655 29.9587 51.0478 29.9364C51.5273 29.9096 51.8496 29.7179 52.0079 29.3766C52.1697 29.0282 52.2621 28.3655 52.2702 27.3953C52.2771 26.5432 52.2702 25.6852 52.2852 24.8296C54.2632 24.7361 56.2411 24.6508 58.2341 24.5701C58.2341 25.0493 58.2191 25.5204 58.2191 25.995C58.2191 27.1849 58.1163 28.1025 57.9568 28.7442C57.7962 29.3941 57.4219 30.0989 56.8373 30.8517C56.2446 31.6138 55.4832 32.1936 54.5832 32.6144C53.6809 33.0352 52.5463 33.2911 51.1795 33.3811C49.8555 33.4688 48.677 33.3835 47.6592 33.0924C46.6401 32.8025 45.858 32.3595 45.2884 31.7611C44.7234 31.1661 44.3364 30.4963 44.1249 29.7389C43.9147 28.985 43.7991 27.8757 43.8049 26.4017C43.813 24.4766 43.8268 22.5526 43.8338 20.624C43.8407 18.8905 44.0741 17.5147 44.5605 16.4955C45.0481 15.4762 45.8429 14.693 46.9602 14.1238C48.0682 13.5592 49.346 13.2565 50.7856 13.2179C52.5452 13.1712 53.9986 13.4529 55.1343 14.0467C56.2816 14.6463 57.0973 15.4517 57.549 16.4662C57.9996 17.4773 58.233 18.9186 58.233 20.7818C58.233 21.6304 58.233 22.479 58.233 23.3276V23.3264ZM51.964 20.4393C51.964 19.9682 51.964 19.4936 51.964 19.0179C51.964 18.0115 51.912 17.3628 51.8046 17.0776C51.6937 16.783 51.4406 16.6486 51.0917 16.6591C50.6411 16.6731 50.3766 16.8146 50.2622 17.0647C50.1432 17.3265 50.0877 17.9905 50.0877 19.0869C50.0877 19.5661 50.0877 20.0407 50.0877 20.5164C50.7128 20.4919 51.339 20.4673 51.964 20.4393Z" fill="#7D5A3A"/>
<path d="M103.804 13.1793C103.76 13.7392 103.716 14.3003 103.687 14.8566C104.254 14.1787 104.868 13.6831 105.548 13.35C106.219 13.0215 106.959 12.859 107.745 12.8672C108.72 12.8766 109.562 13.1279 110.276 13.6223C110.988 14.1156 111.424 14.6778 111.6 15.3113C111.774 15.9414 111.867 17.0214 111.862 18.5316C111.853 21.2037 111.847 23.8793 111.847 26.5548C111.847 28.2883 111.737 29.5121 111.512 30.238C111.286 30.9662 110.84 31.5366 110.145 31.9516C109.459 32.3607 108.633 32.5489 107.658 32.5278C106.887 32.5114 106.159 32.3349 105.49 31.9796C104.835 31.6325 104.225 31.1193 103.672 30.4484C103.672 31.8943 103.672 33.3355 103.672 34.7721C101.577 34.7312 99.4976 34.6949 97.418 34.6704C97.418 31.0854 97.4249 27.4958 97.433 23.9073C97.4399 20.3177 97.433 16.7327 97.448 13.1442C99.5716 13.1524 101.681 13.1688 103.805 13.1805L103.804 13.1793ZM105.607 18.7058C105.607 17.5322 105.548 16.8227 105.462 16.5784C105.373 16.3271 105.113 16.2032 104.676 16.1962C104.254 16.1903 103.998 16.3329 103.876 16.6146C103.752 16.901 103.687 17.5895 103.687 18.6812C103.687 21.296 103.682 23.9108 103.672 26.5221C103.667 27.6594 103.74 28.3794 103.861 28.6576C103.987 28.9475 104.254 29.0936 104.676 29.1042C105.083 29.1147 105.331 28.9826 105.433 28.7266C105.535 28.4671 105.589 27.8289 105.593 26.826C105.604 24.1177 105.608 21.4141 105.608 18.7058H105.607Z" fill="#7D5A3A"/>
<path fill-rule="evenodd" clip-rule="evenodd" d="M1.82662 16.8859H6.31864C7.32379 16.8859 8.14525 17.7181 8.14525 18.7339C8.14525 19.7508 7.32264 20.5819 6.31864 20.5819H1.82662C0.821457 20.5819 0 19.7508 0 18.7339C0 17.7169 0.822613 16.8859 1.82662 16.8859Z" fill="#7D5A3A"/>
<path fill-rule="evenodd" clip-rule="evenodd" d="M165.68 16.8859H170.172C171.177 16.8859 171.999 17.7181 171.999 18.7339C171.999 19.7508 171.176 20.5819 170.172 20.5819H165.68C164.675 20.5819 163.854 19.7508 163.854 18.7339C163.854 17.7169 164.676 16.8859 165.68 16.8859Z" fill="#7D5A3A"/>
</g>
<defs>
<clipPath id="clip0">
<rect width="172" height="39" fill="white"/>
</clipPath>
</defs>
</svg>
